<?xml version="1.0" encoding="utf-8"?>
<!-- Generator: Adobe Illustrator 17.0.0, SVG Export Plug-In . SVG Version: 6.00 Build 0)  -->
<!DOCTYPE svg PUBLIC "-//W3C//DTD SVG 1.1//EN" "http://www.w3.org/Graphics/SVG/1.1/DTD/svg11.dtd">
<svg version="1.1" id="Layer_1" xmlns="http://www.w3.org/2000/svg" xmlns:xlink="http://www.w3.org/1999/xlink" x="0px" y="0px"
	 width="46px" height="46.5px" viewBox="0 0 46 46.5" enable-background="new 0 0 46 46.5" xml:space="preserve">
<path fill="#9D9B9B" d="M23,1.5c-12.15,0-22,9.852-22,22.001C1,35.651,10.85,45.5,23,45.5s22-9.849,22-21.999
	C45,11.352,35.15,1.5,23,1.5z M28.824,23.408h-3.809c0,6.088,0,13.587,0,13.587h-5.647c0,0,0-7.421,0-13.587h-2.685v-4.797h2.685
	v-3.108c0-2.225,1.057-5.697,5.699-5.697l4.181,0.016v4.659c0,0-2.542,0-3.036,0c-0.495,0-1.196,0.248-1.196,1.305v2.825h4.304
	L28.824,23.408z"/>
</svg>
