<?xml version="1.0" encoding="utf-8"?>
<!-- Generator: Adobe Illustrator 17.0.0, SVG Export Plug-In . SVG Version: 6.00 Build 0)  -->
<!DOCTYPE svg PUBLIC "-//W3C//DTD SVG 1.1//EN" "http://www.w3.org/Graphics/SVG/1.1/DTD/svg11.dtd">
<svg version="1.1" id="Layer_1" xmlns="http://www.w3.org/2000/svg" xmlns:xlink="http://www.w3.org/1999/xlink" x="0px" y="0px"
	 width="46px" height="46.5px" viewBox="0 0 46 46.5" enable-background="new 0 0 46 46.5" xml:space="preserve">
<path fill="#9D9B9B" d="M23,1.5c-12.15,0-22,9.849-22,21.999C1,35.65,10.85,45.5,23,45.5c12.149,0,22-9.85,22-22.001
	C45,11.349,35.15,1.5,23,1.5z M34.85,21.381v9.792c0,2.549-2.074,4.622-4.622,4.622H15.554c-2.548,0-4.621-2.073-4.621-4.622v-9.792
	v-4.883c0-2.549,2.073-4.622,4.621-4.622h14.674c2.549,0,4.622,2.073,4.622,4.622V21.381z"/>
<polygon fill="#9D9B9B" points="31.132,19.592 31.132,16.434 31.132,15.962 30.66,15.963 27.503,15.974 27.514,19.604 "/>
<path fill="#9D9B9B" d="M22.903,27.973c2.078,0,3.77-1.691,3.77-3.769c0-0.821-0.267-1.58-0.714-2.198
	c-0.685-0.948-1.798-1.572-3.056-1.572c-1.259,0-2.37,0.623-3.056,1.572c-0.447,0.619-0.713,1.377-0.713,2.198
	C19.133,26.282,20.825,27.973,22.903,27.973z"/>
<path fill="#9D9B9B" d="M23,4.204c-10.88,0-19.7,8.819-19.7,19.698c0,10.88,8.82,19.7,19.7,19.7c10.879,0,19.699-8.82,19.699-19.7
	C42.7,13.023,33.879,4.204,23,4.204z M33.611,22.006v8.768c0,2.282-1.857,4.138-4.139,4.138h-13.14
	c-2.282,0-4.138-1.856-4.138-4.138v-8.768v-4.372c0-2.282,1.856-4.138,4.138-4.138h13.14c2.282,0,4.139,1.856,4.139,4.138V22.006z"
	/>
<path fill="#9D9B9B" d="M28.759,24.204c0,3.228-2.627,5.856-5.856,5.856c-3.23,0-5.855-2.628-5.855-5.856
	c0-0.778,0.155-1.519,0.43-2.198h-3.197v8.768c0,1.132,0.92,2.052,2.052,2.052h13.14c1.132,0,2.052-0.92,2.052-2.052v-8.768h-3.198
	C28.603,22.685,28.759,23.426,28.759,24.204z"/>
</svg>
