<?xml version="1.0" encoding="utf-8"?>
<!-- Generator: Adobe Illustrator 17.0.0, SVG Export Plug-In . SVG Version: 6.00 Build 0)  -->
<!DOCTYPE svg PUBLIC "-//W3C//DTD SVG 1.1//EN" "http://www.w3.org/Graphics/SVG/1.1/DTD/svg11.dtd">
<svg version="1.1" id="Layer_1" xmlns="http://www.w3.org/2000/svg" xmlns:xlink="http://www.w3.org/1999/xlink" x="0px" y="0px"
	 width="46px" height="46.5px" viewBox="0 0 46 46.5" enable-background="new 0 0 46 46.5" xml:space="preserve">
<path fill="#9D9B9B" d="M22.998,1.5c-12.15,0-22.001,9.852-22.001,22.001c0,12.15,9.85,21.999,22.001,21.999
	c12.15,0,21.999-9.849,21.999-21.999C44.998,11.352,35.149,1.5,22.998,1.5z M34.082,19.065c0.011,0.238,0.015,0.477,0.015,0.717
	c0,7.327-5.577,15.776-15.775,15.776c-3.131,0-6.046-0.918-8.499-2.491c0.434,0.051,0.875,0.077,1.322,0.077
	c2.598,0,4.989-0.886,6.886-2.373c-2.426-0.045-4.473-1.648-5.179-3.85c0.338,0.065,0.685,0.099,1.043,0.099
	c0.506,0,0.995-0.067,1.461-0.195c-2.537-0.51-4.448-2.751-4.448-5.436c0-0.024,0-0.047,0.001-0.071
	c0.747,0.415,1.602,0.665,2.511,0.694c-1.488-0.996-2.467-2.692-2.467-4.615c0-1.016,0.273-1.969,0.751-2.788
	c2.734,3.355,6.82,5.561,11.428,5.793c-0.095-0.406-0.143-0.829-0.143-1.263c0-3.062,2.483-5.544,5.544-5.544
	c1.595,0,3.036,0.674,4.047,1.75c1.264-0.248,2.45-0.71,3.521-1.345c-0.414,1.296-1.294,2.382-2.439,3.068
	c1.122-0.134,2.191-0.433,3.185-0.873C36.106,17.306,35.165,18.283,34.082,19.065z"/>
</svg>
