<?xml version="1.0" encoding="utf-8"?>
<!-- Generator: Adobe Illustrator 17.0.0, SVG Export Plug-In . SVG Version: 6.00 Build 0)  -->
<!DOCTYPE svg PUBLIC "-//W3C//DTD SVG 1.1//EN" "http://www.w3.org/Graphics/SVG/1.1/DTD/svg11.dtd">
<svg version="1.1" id="Layer_1" xmlns="http://www.w3.org/2000/svg" xmlns:xlink="http://www.w3.org/1999/xlink" x="0px" y="0px"
	 width="46px" height="46.5px" viewBox="0 0 46 46.5" enable-background="new 0 0 46 46.5" xml:space="preserve">
<g>
	<polygon fill="#9D9B9B" points="13.651,25.101 15.244,25.101 15.244,33.015 16.783,33.015 16.783,25.101 18.375,25.101 
		18.375,23.754 13.651,23.754 	"/>
	<path fill="#9D9B9B" d="M23.104,18.526c0.209,0,0.374-0.056,0.496-0.169c0.123-0.117,0.185-0.276,0.185-0.476V13.78
		c0-0.164-0.063-0.298-0.189-0.398c-0.125-0.103-0.29-0.154-0.493-0.154c-0.188,0-0.339,0.051-0.458,0.154
		c-0.116,0.099-0.174,0.234-0.174,0.398v4.101c0,0.206,0.054,0.365,0.164,0.476C22.744,18.471,22.901,18.526,23.104,18.526z"/>
	<path fill="#9D9B9B" d="M26.498,26.1c-0.213,0-0.422,0.054-0.631,0.162c-0.204,0.108-0.4,0.269-0.585,0.476v-2.984h-1.38v9.26h1.38
		v-0.523c0.178,0.211,0.374,0.365,0.584,0.464c0.207,0.099,0.446,0.148,0.715,0.148c0.403,0,0.715-0.127,0.927-0.386
		c0.215-0.26,0.322-0.63,0.322-1.113v-3.792c0-0.56-0.113-0.986-0.343-1.276C27.26,26.246,26.93,26.1,26.498,26.1z M26.422,31.416
		c0,0.22-0.04,0.375-0.118,0.471c-0.079,0.098-0.201,0.145-0.369,0.145c-0.115,0-0.223-0.026-0.33-0.073
		c-0.105-0.047-0.214-0.131-0.323-0.241v-4.256c0.093-0.096,0.187-0.166,0.281-0.209c0.095-0.047,0.192-0.068,0.29-0.068
		c0.184,0,0.326,0.059,0.426,0.176c0.096,0.12,0.143,0.295,0.143,0.527V31.416z"/>
	<path fill="#9D9B9B" d="M21.509,31.374c-0.128,0.147-0.269,0.267-0.423,0.365c-0.154,0.096-0.283,0.143-0.38,0.143
		c-0.128,0-0.222-0.035-0.281-0.108c-0.055-0.072-0.085-0.188-0.085-0.349v-5.242h-1.365v5.713c0,0.408,0.08,0.708,0.24,0.916
		c0.161,0.202,0.397,0.304,0.714,0.304c0.256,0,0.521-0.07,0.793-0.216c0.273-0.148,0.535-0.358,0.788-0.633v0.749h1.366v-6.831
		h-1.366V31.374z"/>
	<path fill="#9D9B9B" d="M23.044,1.25c-12.15,0-22,9.85-22,22c0,12.152,9.85,22,22,22s22-9.848,22-22
		C45.044,11.1,35.194,1.25,23.044,1.25z M26.599,12.116h1.535v5.77c0,0.18,0.035,0.307,0.099,0.386
		c0.063,0.08,0.168,0.122,0.312,0.122c0.113,0,0.256-0.054,0.429-0.159c0.172-0.108,0.331-0.243,0.473-0.408v-5.711h1.539v7.526
		h-1.539v-0.831c-0.281,0.305-0.576,0.541-0.884,0.7c-0.306,0.159-0.603,0.241-0.892,0.241c-0.357,0-0.624-0.113-0.804-0.339
		c-0.179-0.222-0.269-0.557-0.269-1.009V12.116z M20.889,13.836c0-0.581,0.207-1.045,0.62-1.394
		c0.414-0.342,0.971-0.516,1.669-0.516c0.637,0,1.158,0.183,1.566,0.546c0.404,0.363,0.607,0.834,0.607,1.41v3.886
		c0,0.646-0.2,1.15-0.596,1.515c-0.4,0.365-0.948,0.548-1.647,0.548c-0.672,0-1.211-0.189-1.614-0.564
		c-0.403-0.38-0.605-0.89-0.605-1.529V13.836z M16.701,9.441l1.125,4.076h0.109l1.071-4.076h1.759L18.75,15.41v4.231h-1.731v-4.043
		l-2.061-6.158H16.701z M36.838,30.912c0,2.722-2.207,4.931-4.93,4.931H14.776c-2.724,0-4.931-2.209-4.931-4.931v-3.964
		c0-2.724,2.207-4.931,4.931-4.931h17.132c2.723,0,4.93,2.207,4.93,4.931V30.912z"/>
	<path fill="#9D9B9B" d="M30.62,26.014c-0.612,0-1.108,0.185-1.495,0.56c-0.386,0.372-0.581,0.857-0.581,1.445v3.071
		c0,0.66,0.178,1.176,0.528,1.55c0.351,0.375,0.833,0.564,1.446,0.564c0.681,0,1.191-0.176,1.532-0.529
		c0.346-0.356,0.514-0.883,0.514-1.584v-0.351H31.16v0.311c0,0.403-0.048,0.663-0.136,0.78c-0.09,0.117-0.249,0.176-0.475,0.176
		c-0.218,0-0.373-0.068-0.463-0.206c-0.089-0.141-0.133-0.389-0.133-0.75v-1.286h2.61v-1.745c0-0.646-0.166-1.141-0.503-1.488
		C31.727,26.187,31.246,26.014,30.62,26.014z M31.16,28.701h-1.207V28.01c0-0.286,0.044-0.494,0.14-0.612
		c0.095-0.127,0.25-0.189,0.469-0.189c0.207,0,0.361,0.061,0.454,0.189c0.095,0.119,0.144,0.326,0.144,0.612V28.701z"/>
</g>
</svg>
