<?xml version="1.0" encoding="utf-8"?>
<!-- Generator: Adobe Illustrator 17.0.0, SVG Export Plug-In . SVG Version: 6.00 Build 0)  -->
<!DOCTYPE svg PUBLIC "-//W3C//DTD SVG 1.1//EN" "http://www.w3.org/Graphics/SVG/1.1/DTD/svg11.dtd">
<svg version="1.1" id="Layer_1" xmlns="http://www.w3.org/2000/svg" xmlns:xlink="http://www.w3.org/1999/xlink" x="0px" y="0px"
	 width="329.667px" height="162.667px" viewBox="0 0 329.667 162.667" enable-background="new 0 0 329.667 162.667"
	 xml:space="preserve">
<path fill="#9FD3BD" d="M58.733,26.967l-2.637-6.214c-1.471-3.464-5.749-6.204-9.508-6.094l-24.515,0.732
	c-3.762,0.113-5.848,3.119-4.644,6.683l8.153,24.09c0.455,1.347,1.262,2.38,2.264,3.044c8.229-6.56,19.073-12.548,31.245-17.668
	C59.424,30.024,59.349,28.417,58.733,26.967z"/>
<path fill="#9FD3BD" d="M58.733,114.413l-2.637,6.218c-1.471,3.461-5.749,6.204-9.508,6.091l-24.515-0.735
	c-3.762-0.109-5.848-3.119-4.644-6.679l8.153-24.094c0.455-1.351,1.262-2.377,2.264-3.047c8.229,6.563,19.073,12.551,31.245,17.668
	C59.424,111.359,59.349,112.963,58.733,114.413z"/>
<path fill="#9FD3BD" d="M131.039,128.985c-1.556,0.243-2.435,1.542-1.936,3.17l4.829,15.691c0.554,1.799,2.544,3.27,4.425,3.27
	h63.834c1.881,0,3.871-1.471,4.425-3.27l0.992-3.29h-21.955c-0.595,0-1.228-0.469-1.402-1.04l-1.532-4.976
	c-0.174-0.571,0.171-1.04,0.769-1.04h26.293l1.666-5.345c0.034-0.109,0.007-0.209,0.031-0.315c-7.36,0.441-15.195,0.674-23.42,0.674
	C168.943,132.515,149.373,131.27,131.039,128.985z"/>
<path fill="#4083B5" d="M314.918,66.047l-4.436-4.432c-0.845-0.845-1.631-1.293-2.326-1.44c0.746,3.348,1.197,6.888,1.197,10.711
	c0,3.82-0.445,7.356-1.173,10.705c0.687-0.154,1.467-0.598,2.302-1.436l4.436-4.432C317.576,73.058,317.576,68.708,314.918,66.047z"
	/>
<path fill="#4083B5" d="M302.555,54.597c-7.692-17.264-27.815-27.09-51.341-34.443c-30.096-9.405-94.734-9.405-143.64,0
	c-42.935,8.259-79.009,26.861-87.176,43.797C57.639,49.908,169.924,15.91,302.555,54.597z"/>
<path fill="#4083B5" d="M18.965,68.15c-0.188,0.92-0.308,1.833-0.308,2.736s0.127,1.816,0.315,2.736
	c34.046,13.222,148.989,50.161,285.129,9.566c1.159-3.769,1.837-7.832,1.837-12.302c0-4.477-0.694-8.54-1.881-12.315
	C167.889,17.986,52.994,54.929,18.965,68.15z"/>
<path fill="#4083B5" d="M20.426,77.836c8.287,16.929,44.816,35.524,88.291,43.779c49.532,9.405,114.17,9.405,143.64,0
	c23.03-7.35,42.729-17.172,50.264-34.433c-45.018,13.144-87.721,17.925-125.919,17.925C102.403,105.107,45.074,87.121,20.426,77.836
	z"/>
<g enable-background="new    ">
	<path fill="#F7F8F9" d="M105.711,77.249h-9.438l-1.813,4.343h-3.693l10.19-23.731h0.205l10.225,23.731h-3.864L105.711,77.249z
		 M97.607,74.035h6.771l-3.351-8.139L97.607,74.035z"/>
	<path fill="#F7F8F9" d="M120.727,58.338h3.659v23.253h-3.659V58.338z"/>
	<path fill="#F7F8F9" d="M139.194,81.591h-3.659V58.338h7.455c5.437,0,8.549,2.976,8.549,7.387c0,3.248-1.607,5.573-4.514,6.634
		l5.608,9.232h-4.001l-5.197-8.583h-0.445h-3.795V81.591z M142.853,69.863c3.454,0,4.89-1.368,4.89-4.138
		c0-2.805-1.47-4.138-4.89-4.138h-3.659v8.275H142.853z"/>
	<path fill="#F7F8F9" d="M162.929,75.47c1.06,2.018,2.872,3.146,5.266,3.146c2.463,0,4.104-1.163,4.104-3.044
		c0-2.188-1.676-3.009-3.727-3.933l-1.607-0.718c-3.42-1.505-5.779-3.214-5.779-6.839c0-3.557,2.701-6.053,6.668-6.053
		c3.215,0,5.369,1.197,6.839,3.659l-2.77,1.813c-0.89-1.505-2.154-2.257-4.001-2.257c-1.983,0-3.18,1.094-3.18,2.701
		c0,1.847,1.163,2.496,3.694,3.625l1.606,0.718c3.522,1.573,5.882,3.248,5.882,7.181c0,4.274-3.283,6.429-7.694,6.429
		c-3.966,0-6.805-1.915-8.377-4.89L162.929,75.47z"/>
	<path fill="#F7F8F9" d="M200.582,58.338h3.658v23.253h-3.658V71.88h-11.148v9.711h-3.658V58.338h3.658v10.293h11.148V58.338z"/>
	<path fill="#F7F8F9" d="M215.391,58.338h3.659v23.253h-3.659V58.338z"/>
	<path fill="#F7F8F9" d="M233.859,81.591h-3.66V58.338h7.387c5.438,0,8.549,3.01,8.549,7.523c0,4.616-3.146,7.522-8.549,7.522
		h-3.727V81.591z M237.449,70.136c3.453,0,4.89-1.437,4.89-4.274c0-2.872-1.47-4.274-4.89-4.274h-3.59v8.549H237.449z"/>
</g>
</svg>
